# xmcd
#
# Track frame offsets:
# 150
# 11995
# 15307
# 39044
# 52327
# 62079
# 84006
# 100751
# 116612
# 131946
# 141990
# 151356
# 171371
# 184344
# 197460
# 213347
# 224741
# 238374
# 253847
# 263031
# 276794
# 284364
# 308305
#
# Disc length: 4337 seconds
#
#
# Revision: 0
# Processed by: cddbd v1.5.1PL0 Copyright (c) Steve Scherf et al.
# Submitted via: FreeRIP 2.92 
#
DISCID=5510ef17
DTITLE=Various Artist - Lost Highway
DYEAR=1996
DGENRE=Soundtrack
TTITLE0=David Bowie - I'm Deranged (edit)
TTITLE1=Trent Reznor - Videodrones - Questions
TTITLE2=Nine Inch Nails - The Perfect Drug
TTITLE3=Angelo Badalamenti - Red Bats with Teeth
TTITLE4=Angelo Badalamenti - Haunting and Heartbreaking
TTITLE5=Smashing Pumpkins - Eye
TTITLE6=Angelo Badalamenti - Dub Driving
TTITLE7=Barry Adamson - Mr. Eddy's Theme 1
TTITLE8=Lou Reed - This Magic Moment
TTITLE9=Barry Adamson - Mr. Eddy's Theme 2
TTITLE10=Angelo Badalamenti - Fred and Renee Make Love
TTITLE11=Marilyn Manson - Apple of Sodom
TTITLE12=Antonio Carlos Jobim - Insensatez
TTITLE13=Barry Adamson - Something Wicked this Way Comes (edit)
TTITLE14=Marilyn Manson - I Put a Spell on You
TTITLE15=Angelo Badalamenti - Fats Revisited
TTITLE16=Angelo Badalamenti - Fred's World
TTITLE17=Rammstein - Rammstein (edit)
TTITLE18=Barry Adamson - Hollywood Sunset
TTITLE19=Rammstein - Hierate Mich (edit)
TTITLE20=Angelo Badalamenti - Police
TTITLE21=Trent Reznor - Driver Down
TTITLE22=David Bowie - I'm Deranged (reprise)
EXTD=
EXTT0=
EXTT1=
EXTT2=
EXTT3=
EXTT4=
EXTT5=
EXTT6=
EXTT7=
EXTT8=
EXTT9=
EXTT10=
EXTT11=
EXTT12=
EXTT13=
EXTT14=
EXTT15=
EXTT16=
EXTT17=
EXTT18=
EXTT19=
EXTT20=
EXTT21=
EXTT22=
PLAYORDER=
